PathFileType	4	(X/Y/Z)	D:\TRACE\v60_Jaco2_6-2-23\BothDRS_Motion3_10-platform.trc
DataRate	CameraRate	NumFrames	NumMarkers	Units	OrigDataRate	OrigDataStartFrame	OrigNumFrames
100.00	100.00	      24	5	mm	100.00	2626	      7000
Frame#	Time	Left_Front			Right_Front			Left_Aft			Right_Aft			Post			
		X1	Y1	Z1	X2	Y2	Z2	X3	Y3	Z3	X4	Y4	Z4	X5	Y5	Z5	

2626	26.250	-787.38806	75.50533	-631.57288	782.87262	73.22691	-609.16925	-718.44226	-34.79013	499.16736	695.81805	-45.90932	601.71069	6.10787	1398.35889	-815.46802	
2627	26.260	-788.04028	75.44542	-631.61981	782.47241	73.31045	-609.10254	-718.74536	-34.72236	499.13162	695.75439	-45.94772	601.72595	5.68076	1398.32385	-815.41394	
2628	26.270	-788.31433	75.39828	-631.63708	782.15771	73.25995	-609.07410	-719.10339	-34.66240	499.18805	695.10413	-45.86378	601.64832	5.23051	1398.22913	-815.21301	
2629	26.280	-788.80975	75.39703	-631.80469	781.70892	73.17142	-609.10162	-719.45935	-34.63174	499.40182	694.61914	-45.80256	601.64636	4.88739	1398.24023	-815.07263	
2630	26.290	-789.26239	75.34502	-632.00909	781.34216	73.06042	-609.15289	-719.95068	-34.33427	499.10602	694.17499	-45.79672	601.60901	4.60473	1398.15564	-814.79333	
2631	26.300	-789.60443	75.26450	-632.16479	781.06287	72.92932	-609.18280	-720.17767	-34.22670	499.12415	693.75073	-45.69753	601.55035	4.26717	1397.86719	-814.65601	
2632	26.310	-789.81384	75.21626	-632.30304	780.76910	72.86967	-609.21234	-720.53906	-34.21365	499.05634	693.48560	-45.67348	601.57361	4.02840	1397.63721	-814.50854	
2633	26.320	-790.04895	75.14147	-632.28888	780.43005	72.86801	-609.19855	-720.79645	-34.18240	498.96524	693.04596	-45.65375	601.60754	3.63659	1397.58044	-814.62280	
2634	26.330	-790.03003	74.87393	-631.72449	780.19586	72.82221	-609.25873	-721.12604	-34.23862	498.84213	692.86926	-45.53658	601.53265	3.00755	1397.63220	-814.93445	
2635	26.340	-790.35083	74.98180	-631.81573	779.83575	72.83210	-609.27765	-721.64026	-34.20409	498.90778	692.69995	-45.51662	601.50421	2.77842	1397.57446	-815.06360	
2636	26.350	-790.91199	74.86915	-632.03510	779.46777	72.87762	-609.17877	-722.02136	-34.14927	498.98325	692.44263	-45.42944	601.42035	2.54129	1397.49878	-815.38501	
2637	26.360	-791.43414	74.92882	-631.96350	779.15076	72.85423	-609.18213	-722.26605	-34.14796	498.95697	692.07593	-45.39556	601.38251	2.25091	1397.43140	-815.84015	
2638	26.370	-791.80200	74.93168	-631.85291	778.68475	72.69544	-609.28821	-722.62238	-34.07796	498.93481	691.45282	-45.54123	601.52496	2.07954	1397.40955	-816.23523	
2639	26.380	-792.21045	74.78413	-631.93353	778.31610	72.59032	-609.37854	-723.07513	-33.89391	498.92047	691.19733	-45.46034	601.49072	1.97157	1397.41370	-816.47565	
2640	26.390	-792.64807	74.57623	-632.23456	777.98199	72.56443	-609.42950	-723.32318	-33.78503	498.87149	690.88165	-45.36443	601.48718	1.72055	1397.23804	-816.74420	
2641	26.400	-792.83502	74.57361	-632.37225	777.72900	72.45499	-609.46143	-723.69037	-33.68044	498.89615	690.53412	-45.24837	601.52057	1.18692	1396.98828	-817.06940	
2642	26.410	-793.19818	74.43639	-632.49109	777.53223	72.23907	-609.49335	-724.04425	-33.52988	498.88443	690.20917	-45.24468	601.47028	0.82294	1396.86353	-817.17761	
2643	26.420	-793.08704	74.21436	-632.07184	777.33765	72.15878	-609.52014	-723.91144	-33.43914	499.00983	689.88147	-45.16526	601.45673	0.67142	1396.75598	-817.35999	
2644	26.430	-793.30249	74.30351	-632.16724	777.02429	72.16361	-609.56537	-724.05267	-33.35485	499.04947	689.54492	-45.06396	601.46106	0.20289	1396.60742	-817.69257	
2645	26.440	-793.84131	74.04614	-632.59625	776.70068	72.11975	-609.66370	-724.55200	-33.48838	498.83917	689.26300	-44.90747	601.46765	-0.45420	1396.51086	-817.99377	
2646	26.450	-794.07202	73.83442	-632.65289	776.32288	71.88097	-609.67102	-724.93341	-33.46128	498.76761	689.18860	-45.02065	601.35260	-0.79523	1396.36279	-818.16766	
2647	26.460	-794.27209	73.73241	-632.68494	775.94177	71.80093	-609.71027	-725.31061	-33.38018	498.78613	688.65887	-44.75343	601.45441	-0.95362	1396.21667	-818.23541	
2648	26.470	-794.60779	73.69199	-632.69360	775.69489	71.80593	-609.83142	-725.55054	-33.23174	498.78003	688.40472	-44.61644	601.46350	-1.52423	1395.92761	-818.34247	
2649	26.480	-794.83789	73.61953	-632.73376	775.45819	71.71615	-609.85596	-725.82715	-33.05609	498.72818	688.17102	-44.53305	601.48224	-1.39237	1395.98877	-818.89984	
